<?xml version="1.0" encoding="utf-8"?>
<!-- Generator: Adobe Illustrator 16.0.0, SVG Export Plug-In . SVG Version: 6.00 Build 0)  -->
<!DOCTYPE svg PUBLIC "-//W3C//DTD SVG 1.1//EN" "http://www.w3.org/Graphics/SVG/1.1/DTD/svg11.dtd">
<svg version="1.1" id="Layer_1" xmlns="http://www.w3.org/2000/svg" xmlns:xlink="http://www.w3.org/1999/xlink" x="0px" y="0px"
	 width="64px" height="64px" viewBox="0 -20 64 64" enable-background="new 0 -20 64 64" xml:space="preserve">
<g>
	<polygon fill="#4B5A61" points="3.229,20.185 3.229,17.671 3.865,17.671 4.249,19.388 4.629,17.671 5.269,17.671 5.269,20.185 
		4.872,20.185 4.872,18.205 4.451,20.185 4.042,20.185 3.625,18.205 3.625,20.185 	"/>
	<polygon fill="#4B5A61" points="5.689,20.185 5.689,17.671 7.253,17.671 7.253,18.097 6.113,18.097 6.113,18.654 7.173,18.654 
		7.173,19.077 6.113,19.077 6.113,19.76 7.292,19.76 7.292,20.185 	"/>
	<polygon fill="#4B5A61" points="8.127,20.185 8.127,18.097 7.501,18.097 7.501,17.671 9.176,17.671 9.176,18.097 8.551,18.097 
		8.551,20.185 	"/>
	<path fill="#4B5A61" d="M11.138,20.185h-0.461l-0.186-0.569H9.648l-0.175,0.569H9.021l0.82-2.514h0.451L11.138,20.185z
		 M10.354,19.19l-0.291-0.933L9.778,19.19H10.354z"/>
	<polygon fill="#4B5A61" points="11.373,20.185 11.373,17.692 11.798,17.692 11.798,19.76 12.856,19.76 12.856,20.185 	"/>
	<polygon fill="#4B5A61" points="13.922,20.185 13.922,17.671 14.559,17.671 14.941,19.388 15.322,17.671 15.962,17.671 
		15.962,20.185 15.564,20.185 15.564,18.205 15.145,20.185 14.735,20.185 14.318,18.205 14.318,20.185 	"/>
	<path fill="#4B5A61" d="M18.283,20.185h-0.461l-0.185-0.569h-0.844l-0.175,0.569h-0.452l0.82-2.514h0.451L18.283,20.185z
		 M17.499,19.19l-0.29-0.933l-0.285,0.933H17.499z"/>
	<polygon fill="#4B5A61" points="18.512,20.185 18.512,17.671 18.937,17.671 18.937,18.79 19.797,17.671 20.371,17.671 
		19.576,18.65 20.414,20.185 19.861,20.185 19.28,19.004 18.937,19.425 18.937,20.185 	"/>
	<path fill="#4B5A61" d="M20.619,17.671h0.425v2.514h-0.425V17.671z M20.634,16.992h0.396v0.456h-0.396V16.992z"/>
	<polygon fill="#4B5A61" points="21.455,20.185 21.455,17.671 21.869,17.671 22.731,19.35 22.731,17.671 23.129,17.671 
		23.129,20.185 22.7,20.185 21.853,18.546 21.853,20.185 	"/>
	<path fill="#4B5A61" d="M25.479,20.185h-0.461l-0.185-0.569h-0.844l-0.175,0.569h-0.453l0.821-2.514h0.451L25.479,20.185z
		 M24.694,19.19l-0.29-0.933l-0.285,0.933H24.694z"/>
	<path fill="#4B5A61" d="M26.4,17.671h0.425v2.514H26.4V17.671z M26.415,16.992h0.398v0.456h-0.398V16.992z"/>
	<polygon fill="#4B5A61" points="27.237,20.185 27.237,17.671 27.65,17.671 28.513,19.35 28.513,17.671 28.91,17.671 28.91,20.185 
		28.481,20.185 27.634,18.546 27.634,20.185 	"/>
	<g>
		<path fill="#4B5A61" d="M29.251,19.365l0.415-0.049c0.048,0.321,0.2,0.482,0.459,0.482c0.13,0,0.229-0.033,0.304-0.099
			c0.074-0.066,0.11-0.147,0.11-0.244c0-0.058-0.012-0.105-0.038-0.146c-0.026-0.041-0.065-0.073-0.118-0.099
			c-0.053-0.026-0.181-0.068-0.382-0.129c-0.181-0.054-0.313-0.112-0.397-0.175c-0.085-0.063-0.152-0.146-0.201-0.248
			c-0.05-0.102-0.074-0.212-0.074-0.329c0-0.137,0.031-0.261,0.095-0.371c0.064-0.108,0.151-0.191,0.265-0.247
			c0.111-0.056,0.251-0.085,0.415-0.085c0.247,0,0.441,0.066,0.58,0.198c0.14,0.131,0.214,0.318,0.222,0.563l-0.427,0.021
			c-0.018-0.134-0.059-0.229-0.121-0.282c-0.061-0.054-0.149-0.081-0.264-0.081c-0.115,0-0.204,0.024-0.266,0.07
			c-0.062,0.047-0.092,0.105-0.092,0.175c0,0.068,0.027,0.126,0.083,0.173c0.056,0.046,0.186,0.098,0.388,0.154
			c0.215,0.06,0.368,0.124,0.464,0.19c0.095,0.067,0.169,0.153,0.22,0.26c0.049,0.104,0.074,0.233,0.074,0.384
			c0,0.219-0.069,0.401-0.205,0.551c-0.139,0.148-0.354,0.222-0.646,0.222C29.597,20.227,29.309,19.94,29.251,19.365 M29.688,20.877
			v-0.202c0.099,0.013,0.188,0.019,0.272,0.019c0.078,0,0.139-0.016,0.177-0.045c0.041-0.031,0.061-0.068,0.061-0.115
			c0-0.043-0.017-0.077-0.049-0.104c-0.031-0.027-0.077-0.04-0.135-0.04c-0.061,0-0.123,0.012-0.188,0.034l0.038-0.171
			c0.075-0.031,0.157-0.047,0.244-0.047c0.109,0,0.198,0.03,0.266,0.09c0.065,0.06,0.099,0.139,0.099,0.235
			c0,0.109-0.045,0.199-0.132,0.27c-0.088,0.069-0.211,0.104-0.372,0.104C29.843,20.904,29.75,20.896,29.688,20.877"/>
		<rect x="31.319" y="19.703" fill="#4B5A61" width="0.403" height="0.481"/>
		<path fill="#4B5A61" d="M32.853,19.365l0.415-0.049c0.048,0.321,0.2,0.482,0.459,0.482c0.13,0,0.23-0.033,0.304-0.099
			c0.074-0.066,0.111-0.147,0.111-0.244c0-0.058-0.015-0.105-0.039-0.146c-0.026-0.041-0.065-0.073-0.116-0.099
			c-0.055-0.025-0.181-0.068-0.384-0.13c-0.181-0.053-0.313-0.111-0.397-0.174c-0.085-0.063-0.152-0.146-0.201-0.248
			c-0.05-0.102-0.074-0.212-0.074-0.329c0-0.137,0.031-0.261,0.096-0.371c0.063-0.108,0.15-0.191,0.264-0.247
			c0.111-0.056,0.251-0.085,0.415-0.085c0.249,0,0.441,0.066,0.581,0.198c0.139,0.131,0.213,0.318,0.221,0.563l-0.426,0.021
			c-0.019-0.134-0.06-0.229-0.122-0.282c-0.061-0.054-0.149-0.081-0.264-0.081c-0.115,0-0.203,0.024-0.266,0.07
			c-0.061,0.047-0.092,0.104-0.092,0.175c0,0.068,0.027,0.126,0.083,0.173c0.058,0.046,0.186,0.098,0.388,0.154
			c0.215,0.06,0.369,0.124,0.464,0.19c0.095,0.067,0.169,0.153,0.218,0.26c0.052,0.104,0.076,0.233,0.076,0.384
			c0,0.219-0.069,0.401-0.205,0.551c-0.138,0.148-0.353,0.222-0.645,0.222C33.199,20.227,32.91,19.94,32.853,19.365"/>
		<path fill="#4B5A61" d="M36.825,20.185h-0.461l-0.184-0.569h-0.845l-0.174,0.569h-0.453l0.82-2.514h0.451L36.825,20.185z
			 M36.043,19.19l-0.292-0.933l-0.284,0.933H36.043z"/>
		<polygon fill="#4B5A61" points="37.054,20.185 37.054,17.671 37.468,17.671 38.331,19.35 38.331,17.671 38.727,17.671 
			38.727,20.185 38.3,20.185 37.45,18.546 37.45,20.185 		"/>
		<rect x="39.172" y="19.703" fill="#4B5A61" width="0.404" height="0.481"/>
		<polygon fill="#4B5A61" points="41.286,20.185 41.286,18.097 40.661,18.097 40.661,17.671 42.336,17.671 42.336,18.097 
			41.711,18.097 41.711,20.185 		"/>
		<path fill="#4B5A61" d="M42.599,17.671h0.425v2.514h-0.425V17.671z M42.613,16.992h0.396v0.456h-0.396V16.992z"/>
		<path fill="#4B5A61" d="M44.78,19.261l0.413,0.156c-0.065,0.281-0.172,0.486-0.321,0.615c-0.149,0.13-0.335,0.194-0.553,0.194
			c-0.274,0-0.497-0.103-0.668-0.31c-0.196-0.238-0.295-0.561-0.295-0.967c0-0.429,0.099-0.764,0.297-1.006
			c0.172-0.21,0.403-0.316,0.693-0.316c0.236,0,0.434,0.079,0.593,0.237c0.114,0.111,0.196,0.278,0.249,0.498l-0.42,0.12
			c-0.026-0.135-0.08-0.24-0.161-0.313c-0.08-0.072-0.175-0.109-0.283-0.109c-0.156,0-0.284,0.066-0.383,0.2
			c-0.098,0.132-0.147,0.351-0.147,0.655c0,0.317,0.05,0.542,0.145,0.676s0.222,0.201,0.374,0.201c0.111,0,0.208-0.043,0.29-0.128
			S44.744,19.445,44.78,19.261"/>
		<rect x="45.554" y="19.703" fill="#4B5A61" width="0.404" height="0.481"/>
		<polygon fill="#4B5A61" points="47.206,20.185 47.206,17.692 47.631,17.692 47.631,19.76 48.69,19.76 48.69,20.185 		"/>
		<polygon fill="#4B5A61" points="49.253,20.185 49.253,18.097 48.626,18.097 48.626,17.671 50.301,17.671 50.301,18.097 
			49.676,18.097 49.676,20.185 		"/>
		<path fill="#4B5A61" d="M50.574,17.671h0.776c0.195,0,0.344,0.022,0.444,0.064c0.1,0.043,0.19,0.116,0.275,0.217
			c0.084,0.102,0.151,0.234,0.198,0.396c0.048,0.162,0.072,0.363,0.072,0.604c0,0.218-0.026,0.407-0.077,0.567
			c-0.049,0.16-0.113,0.288-0.19,0.381c-0.077,0.095-0.169,0.164-0.278,0.213c-0.11,0.047-0.249,0.07-0.422,0.07h-0.799V17.671z
			 M50.999,18.097v1.663h0.318c0.138,0,0.236-0.013,0.297-0.038c0.063-0.025,0.111-0.063,0.151-0.114
			c0.039-0.051,0.072-0.131,0.098-0.24s0.038-0.254,0.038-0.434c0-0.186-0.013-0.333-0.039-0.44
			c-0.026-0.106-0.067-0.19-0.122-0.253c-0.057-0.061-0.123-0.102-0.203-0.122c-0.059-0.015-0.176-0.021-0.346-0.021H50.999z"/>
		<rect x="52.698" y="19.703" fill="#4B5A61" width="0.405" height="0.481"/>
		<path fill="#4B5A61" d="M54.232,19.365l0.416-0.049c0.046,0.321,0.198,0.482,0.459,0.482c0.128,0,0.23-0.033,0.304-0.099
			c0.074-0.066,0.11-0.147,0.11-0.244c0-0.058-0.014-0.105-0.04-0.146c-0.024-0.041-0.063-0.073-0.116-0.099
			c-0.053-0.026-0.181-0.068-0.382-0.129c-0.183-0.054-0.315-0.112-0.398-0.175c-0.084-0.063-0.151-0.146-0.2-0.248
			c-0.051-0.102-0.075-0.212-0.075-0.329c0-0.137,0.032-0.261,0.095-0.371c0.063-0.108,0.152-0.191,0.264-0.247
			c0.113-0.056,0.251-0.085,0.417-0.085c0.248,0,0.441,0.066,0.581,0.198c0.139,0.131,0.213,0.318,0.22,0.563l-0.425,0.021
			c-0.021-0.134-0.062-0.229-0.122-0.282c-0.063-0.054-0.15-0.081-0.266-0.081c-0.113,0-0.201,0.024-0.264,0.07
			c-0.063,0.047-0.094,0.105-0.094,0.175c0,0.068,0.028,0.126,0.085,0.173c0.057,0.046,0.186,0.098,0.388,0.154
			c0.215,0.06,0.369,0.124,0.464,0.19c0.095,0.067,0.167,0.153,0.218,0.26c0.05,0.104,0.076,0.233,0.076,0.384
			c0,0.219-0.069,0.401-0.207,0.551c-0.138,0.148-0.353,0.222-0.645,0.222C54.578,20.227,54.291,19.94,54.232,19.365 M54.668,20.877
			v-0.202c0.099,0.013,0.189,0.019,0.272,0.019c0.079,0,0.14-0.016,0.179-0.045c0.04-0.031,0.06-0.068,0.06-0.115
			c0-0.043-0.015-0.077-0.048-0.104c-0.031-0.027-0.077-0.04-0.136-0.04c-0.062,0-0.123,0.012-0.188,0.034l0.036-0.171
			c0.075-0.031,0.157-0.047,0.246-0.047c0.11,0,0.198,0.03,0.264,0.09c0.066,0.06,0.099,0.139,0.099,0.235
			c0,0.109-0.044,0.199-0.131,0.27c-0.089,0.069-0.212,0.104-0.372,0.104C54.826,20.904,54.732,20.896,54.668,20.877"/>
		<polygon fill="#4B5A61" points="56.777,20.185 56.777,18.097 56.152,18.097 56.152,17.671 57.827,17.671 57.827,18.097 
			57.202,18.097 57.202,20.185 		"/>
		<path fill="#4B5A61" d="M58.09,17.671h0.425v2.514H58.09V17.671z M58.104,16.992h0.398v0.456h-0.398V16.992z"/>
		<rect x="58.92" y="19.703" fill="#4B5A61" width="0.403" height="0.481"/>
	</g>
	<g>
		<defs>
			<path id="SVGID_1_" d="M21.419,21.793c2.297,9.433,7.019,10.698,7.019,10.698s-0.109,2.472-0.068,3.611s0.816,1.09,0.816,1.09
				s3.621-0.18,4.838-0.409c1.219-0.229,1.296-1.362,1.296-1.362l1.158-3.407c2.059-0.647,2.793-1.362,2.793-1.362
				C37.525,31.166,36,31.061,36,31.061c-9.352,0-10.63-9.268-10.63-9.268H21.419z M7.11,21.726
				c2.378,0.41,11.037,1.703,11.037,1.703l-2.383,2.726c-0.764,0.853-0.205,1.976-0.205,1.976s2.755,3.635,3.337,4.43
				c0.586,0.793,1.638,0.271,1.638,0.271l3.542-2.452c-3.111-3.994-3.203-8.653-3.203-8.653H7.11z M36.886-12.663l-1.227,3.339
				c4.393,0.88,6.269,2.862,6.269,2.862c-5.185-3.542-10.97-1.976-10.97-1.976l-2.385-2.93c-0.585-0.759-1.567-0.136-1.567-0.136
				l-4.77,3.202c-0.765,0.713-0.203,2.112-0.203,2.112l1.225,3.271c-1.686,1.983-3.271,5.11-3.271,5.11l-4.496,0.136
				c-0.794,0.401-1.295,2.454-1.295,2.454L2.682,6.279L2,6.416l24.12,0.273c1.752-6.147,6.164-9.254,7.223-9.812
				c5.741-3.024,10.084-0.545,10.084-0.545c-1.885-0.634-4.089-0.545-4.089-0.545c-6.314,0.525-8.584,4.974-8.584,4.974
				c3.928-3.946,8.198-3.874,8.584-3.884c7.356-0.208,10.154,7.222,10.154,7.222S49.444,3.8,49.354,3.212
				c-0.089-0.586,0-0.817,0-0.817l1.637-2.181c0.313-0.478-0.069-1.499-0.069-1.499s-1.499-3.285-1.84-3.953
				c-0.341-0.667-1.294-0.136-1.294-0.136l-1.841,1.159c-1.746-2.201-3.134-2.862-3.134-2.862l0.136-3.611
				c0.01-0.278-0.354-0.739-0.952-1.022s-2.917-1.181-3.953-1.431c-0.152-0.037-0.284-0.052-0.398-0.052
				C36.975-13.192,36.886-12.663,36.886-12.663"/>
		</defs>
		<clipPath id="SVGID_2_">
			<use xlink:href="#SVGID_1_"  overflow="visible"/>
		</clipPath>
		
			<linearGradient id="SVGID_3_" gradientUnits="userSpaceOnUse" x1="-406.8848" y1="309.5" x2="-406.7743" y2="309.5" gradientTransform="matrix(445.3961 0 0 -445.3961 181226.75 137862.0938)">
			<stop  offset="0" style="stop-color:#063772"/>
			<stop  offset="0.241" style="stop-color:#06366F"/>
			<stop  offset="0.3921" style="stop-color:#053167"/>
			<stop  offset="0.5184" style="stop-color:#042A58"/>
			<stop  offset="0.6305" style="stop-color:#022044"/>
			<stop  offset="0.7332" style="stop-color:#001329"/>
			<stop  offset="0.7374" style="stop-color:#001228"/>
			<stop  offset="1" style="stop-color:#001228"/>
		</linearGradient>
		<rect x="2" y="-13.192" clip-path="url(#SVGID_2_)" fill="url(#SVGID_3_)" width="49.305" height="50.435"/>
	</g>
	<g>
		<defs>
			<path id="SVGID_4_" d="M43.399,21.638c-2.169,4.525-6.951,6.065-6.951,6.065c-5.817,1.566-8.653-2.113-8.653-2.113
				s3.013,4.955,8.313,4.77c7.227-0.254,10.902-7.358,10.902-7.358l9.401-1.363H43.399z M39.582-2.394
				c-4.705,0.045-7.698,2.726-7.698,2.726s2.047-1.312,5.996-1.09C42.963-0.473,45.102,6.6,45.102,6.6H62L48.782,5.51
				c-0.937-3.779-4.784-7.904-9.133-7.904C39.627-2.394,39.605-2.394,39.582-2.394"/>
		</defs>
		<clipPath id="SVGID_5_">
			<use xlink:href="#SVGID_4_"  overflow="visible"/>
		</clipPath>
		
			<linearGradient id="SVGID_6_" gradientUnits="userSpaceOnUse" x1="-407.2871" y1="309.5527" x2="-407.1768" y2="309.5527" gradientTransform="matrix(310.1881 0 0 -310.1881 126363.4063 96033.25)">
			<stop  offset="0" style="stop-color:#8C8C8C"/>
			<stop  offset="0.1807" style="stop-color:#9C9C9C"/>
			<stop  offset="0.5361" style="stop-color:#C7C7C7"/>
			<stop  offset="0.9385" style="stop-color:#FFFFFF"/>
			<stop  offset="1" style="stop-color:#FFFFFF"/>
		</linearGradient>
		<rect x="27.795" y="-2.394" clip-path="url(#SVGID_5_)" fill="url(#SVGID_6_)" width="34.205" height="32.939"/>
	</g>
	<g>
		<polygon fill="#053A7E" points="9.664,10.915 12.819,8.399 15.311,8.399 13.192,16.453 10.701,16.453 12.025,11.417 8.87,13.938 
			7.044,11.417 5.72,16.453 3.229,16.453 5.347,8.399 7.838,8.399 		"/>
		<polygon fill="#053A7E" points="20.764,8.398 23.248,8.398 24.87,16.453 22.379,16.453 21.211,11.417 17.401,16.453 
			14.905,16.453 		"/>
		<polygon fill="#053A7E" points="31.396,10.854 34.027,8.394 37.069,8.394 32.234,12.457 31.165,16.515 28.652,16.515 
			29.722,12.457 27.021,8.398 30.073,8.398 		"/>
		<path fill="#053A7E" d="M36.017,16.453l1.323-5.036h9.969l-0.529,2.019h-7.478l-0.264,1.004h7.478l-0.535,2.014H36.017z
			 M37.604,10.412l0.529-2.013h9.971l-0.529,2.013H37.604z"/>
		<path fill="#053A7E" d="M57.235,8.398c0.472,0,0.879,0.093,1.219,0.279c0.341,0.187,0.585,0.438,0.734,0.754
			c0.149,0.316,0.174,0.666,0.074,1.05l-0.227,0.87c-0.102,0.384-0.311,0.733-0.625,1.049c-0.316,0.313-0.693,0.564-1.132,0.753
			c-0.439,0.188-0.896,0.282-1.368,0.282H54.75l2.939,3.018h-3.733l-2.934-3.018l-0.796,3.018h-2.501l1.33-5.044h2.496v0.008h4.436
			c0.147,0,0.285-0.042,0.413-0.127s0.208-0.186,0.241-0.305l0.032-0.14c0.033-0.119,0.007-0.221-0.077-0.305
			c-0.082-0.085-0.196-0.128-0.344-0.128h-6.938l0.528-2.013h2.643h0.007H57.235z"/>
	</g>
</g>
</svg>
