<?xml version="1.0" encoding="utf-8"?>
<!-- Generator: Adobe Illustrator 16.0.0, SVG Export Plug-In . SVG Version: 6.00 Build 0)  -->
<!DOCTYPE svg PUBLIC "-//W3C//DTD SVG 1.1//EN" "http://www.w3.org/Graphics/SVG/1.1/DTD/svg11.dtd">
<svg version="1.1" id="Layer_1" xmlns="http://www.w3.org/2000/svg" xmlns:xlink="http://www.w3.org/1999/xlink" x="0px" y="0px"
	 width="100px" height="80px" viewBox="0 0 100 80" enable-background="new 0 0 100 80" xml:space="preserve">
<g>
	<polygon fill="#4B5A61" points="1.902,52.67 1.902,48.779 2.888,48.779 3.481,51.437 4.07,48.779 5.06,48.779 5.06,52.67 
		4.446,52.67 4.446,49.605 3.795,52.67 3.162,52.67 2.516,49.605 2.516,52.67 	"/>
	<polygon fill="#4B5A61" points="5.711,52.67 5.711,48.779 8.133,48.779 8.133,49.438 6.368,49.438 6.368,50.301 8.008,50.301 
		8.008,50.956 6.368,50.956 6.368,52.012 8.192,52.012 8.192,52.67 	"/>
	<polygon fill="#4B5A61" points="9.485,52.67 9.485,49.438 8.516,49.438 8.516,48.779 11.108,48.779 11.108,49.438 10.142,49.438 
		10.142,52.67 	"/>
	<path fill="#4B5A61" d="M14.146,52.67h-0.715l-0.286-0.881H11.84l-0.271,0.881h-0.7l1.271-3.891h0.698L14.146,52.67z
		 M12.934,51.131l-0.45-1.443l-0.442,1.443H12.934z"/>
	<polygon fill="#4B5A61" points="14.51,52.67 14.51,48.812 15.167,48.812 15.167,52.012 16.807,52.012 16.807,52.67 	"/>
	<polygon fill="#4B5A61" points="18.457,52.67 18.457,48.779 19.442,48.779 20.035,51.437 20.624,48.779 21.614,48.779 
		21.614,52.67 21,52.67 21,49.605 20.35,52.67 19.716,52.67 19.07,49.605 19.07,52.67 	"/>
	<path fill="#4B5A61" d="M25.209,52.67h-0.715l-0.286-0.881h-1.306l-0.271,0.881h-0.7l1.271-3.891H23.9L25.209,52.67z
		 M23.996,51.131l-0.45-1.443l-0.442,1.443H23.996z"/>
	<polygon fill="#4B5A61" points="25.562,52.67 25.562,48.779 26.219,48.779 26.219,50.512 27.553,48.779 28.44,48.779 27.21,50.296 
		28.506,52.67 27.652,52.67 26.753,50.842 26.219,51.494 26.219,52.67 	"/>
	<path fill="#4B5A61" d="M28.824,48.779h0.657v3.891h-0.657V48.779z M28.847,47.729h0.615v0.706h-0.615V47.729z"/>
	<polygon fill="#4B5A61" points="30.119,52.67 30.119,48.779 30.76,48.779 32.096,51.378 32.096,48.779 32.709,48.779 32.709,52.67 
		32.047,52.67 30.733,50.133 30.733,52.67 	"/>
	<path fill="#4B5A61" d="M36.347,52.67h-0.714l-0.286-0.881h-1.306l-0.271,0.881h-0.7l1.271-3.891h0.698L36.347,52.67z
		 M35.135,51.131l-0.45-1.443l-0.442,1.443H35.135z"/>
	<path fill="#4B5A61" d="M37.775,48.779h0.656v3.891h-0.656V48.779z M37.797,47.729h0.616v0.706h-0.616V47.729z"/>
	<polygon fill="#4B5A61" points="39.069,52.67 39.069,48.779 39.71,48.779 41.046,51.378 41.046,48.779 41.659,48.779 41.659,52.67 
		40.997,52.67 39.684,50.133 39.684,52.67 	"/>
	<g>
		<path fill="#4B5A61" d="M42.187,51.401l0.644-0.074c0.072,0.497,0.31,0.746,0.711,0.746c0.199,0,0.355-0.051,0.47-0.152
			c0.114-0.103,0.171-0.229,0.171-0.379c0-0.088-0.02-0.163-0.06-0.225c-0.04-0.063-0.101-0.113-0.182-0.153
			c-0.082-0.04-0.279-0.105-0.592-0.199c-0.281-0.083-0.486-0.174-0.616-0.271c-0.131-0.098-0.234-0.226-0.312-0.384
			c-0.076-0.158-0.115-0.328-0.115-0.51c0-0.212,0.05-0.403,0.148-0.573s0.234-0.298,0.408-0.384
			c0.174-0.087,0.388-0.131,0.644-0.131c0.384,0,0.683,0.103,0.898,0.306s0.329,0.494,0.342,0.873l-0.659,0.034
			c-0.029-0.208-0.092-0.354-0.188-0.438s-0.232-0.125-0.41-0.125c-0.177,0-0.313,0.036-0.41,0.108
			c-0.096,0.072-0.144,0.163-0.144,0.271c0,0.105,0.044,0.194,0.131,0.267s0.287,0.152,0.6,0.239
			c0.331,0.093,0.57,0.192,0.718,0.295c0.147,0.104,0.261,0.237,0.339,0.401c0.077,0.163,0.116,0.362,0.116,0.596
			c0,0.338-0.106,0.621-0.319,0.852c-0.213,0.229-0.545,0.345-0.998,0.345C42.723,52.736,42.277,52.291,42.187,51.401
			 M42.862,53.742v-0.313c0.152,0.02,0.292,0.029,0.421,0.029c0.123,0,0.216-0.023,0.276-0.069c0.062-0.048,0.093-0.107,0.093-0.18
			c0-0.065-0.025-0.119-0.075-0.161c-0.049-0.041-0.119-0.062-0.21-0.062c-0.094,0-0.19,0.018-0.291,0.053l0.058-0.266
			c0.116-0.048,0.243-0.071,0.38-0.071c0.17,0,0.307,0.047,0.409,0.14c0.102,0.093,0.153,0.214,0.153,0.363
			c0,0.17-0.068,0.309-0.204,0.418c-0.136,0.107-0.327,0.162-0.575,0.162C43.104,53.785,42.96,53.771,42.862,53.742"/>
		<rect x="45.39" y="51.925" fill="#4B5A61" width="0.625" height="0.745"/>
		<path fill="#4B5A61" d="M47.763,51.401l0.644-0.074c0.072,0.497,0.31,0.746,0.711,0.746c0.199,0,0.355-0.051,0.47-0.152
			c0.114-0.103,0.171-0.229,0.171-0.379c0-0.088-0.021-0.163-0.06-0.225c-0.04-0.063-0.101-0.113-0.182-0.153
			c-0.082-0.039-0.279-0.105-0.592-0.2c-0.281-0.082-0.486-0.173-0.616-0.27c-0.131-0.098-0.234-0.226-0.312-0.384
			s-0.115-0.328-0.115-0.51c0-0.212,0.05-0.403,0.148-0.573s0.234-0.298,0.408-0.384c0.174-0.087,0.389-0.131,0.644-0.131
			c0.384,0,0.683,0.103,0.898,0.306c0.215,0.203,0.329,0.494,0.342,0.873l-0.659,0.034c-0.029-0.208-0.092-0.354-0.188-0.438
			s-0.232-0.125-0.41-0.125s-0.313,0.036-0.41,0.108c-0.096,0.072-0.144,0.162-0.144,0.271c0,0.105,0.043,0.194,0.131,0.267
			c0.087,0.072,0.287,0.152,0.6,0.239c0.331,0.093,0.57,0.192,0.718,0.295c0.147,0.104,0.261,0.237,0.338,0.401
			c0.078,0.163,0.117,0.362,0.117,0.596c0,0.338-0.106,0.621-0.319,0.852c-0.213,0.229-0.545,0.345-0.998,0.345
			C48.299,52.736,47.853,52.291,47.763,51.401"/>
		<path fill="#4B5A61" d="M53.914,52.67h-0.715l-0.285-0.881h-1.307l-0.27,0.881h-0.7l1.271-3.891h0.697L53.914,52.67z
			 M52.702,51.131l-0.451-1.443l-0.441,1.443H52.702z"/>
		<polygon fill="#4B5A61" points="54.267,52.67 54.267,48.779 54.907,48.779 56.243,51.378 56.243,48.779 56.856,48.779 
			56.856,52.67 56.194,52.67 54.881,50.133 54.881,52.67 		"/>
		<rect x="57.546" y="51.925" fill="#4B5A61" width="0.625" height="0.745"/>
		<polygon fill="#4B5A61" points="60.82,52.67 60.82,49.438 59.852,49.438 59.852,48.779 62.443,48.779 62.443,49.438 
			61.478,49.438 61.478,52.67 		"/>
		<path fill="#4B5A61" d="M62.851,48.779h0.657v3.891h-0.657V48.779z M62.873,47.729h0.615v0.706h-0.615V47.729z"/>
		<path fill="#4B5A61" d="M66.229,51.24l0.638,0.241c-0.1,0.436-0.265,0.753-0.497,0.954c-0.231,0.2-0.517,0.301-0.854,0.301
			c-0.426,0-0.771-0.16-1.035-0.48c-0.304-0.369-0.456-0.868-0.456-1.496c0-0.664,0.153-1.183,0.459-1.558
			c0.267-0.326,0.625-0.489,1.074-0.489c0.365,0,0.672,0.122,0.918,0.367c0.176,0.173,0.305,0.431,0.386,0.771l-0.651,0.186
			c-0.041-0.21-0.125-0.372-0.249-0.484c-0.124-0.111-0.271-0.168-0.439-0.168c-0.24,0-0.438,0.103-0.59,0.308
			s-0.229,0.544-0.229,1.017c0,0.49,0.074,0.839,0.223,1.046s0.342,0.311,0.578,0.311c0.174,0,0.324-0.066,0.451-0.198
			C66.08,51.735,66.172,51.526,66.229,51.24"/>
		<rect x="67.425" y="51.925" fill="#4B5A61" width="0.625" height="0.745"/>
		<polygon fill="#4B5A61" points="69.982,52.67 69.982,48.812 70.64,48.812 70.64,52.012 72.279,52.012 72.279,52.67 		"/>
		<polygon fill="#4B5A61" points="73.15,52.67 73.15,49.438 72.182,49.438 72.182,48.779 74.774,48.779 74.774,49.438 
			73.808,49.438 73.808,52.67 		"/>
		<path fill="#4B5A61" d="M75.197,48.779h1.202c0.303,0,0.532,0.033,0.687,0.1c0.155,0.066,0.297,0.179,0.428,0.336
			c0.13,0.157,0.232,0.362,0.307,0.613s0.111,0.563,0.111,0.937c0,0.336-0.039,0.629-0.117,0.877
			c-0.078,0.249-0.176,0.446-0.296,0.591c-0.119,0.146-0.263,0.254-0.433,0.328c-0.169,0.073-0.386,0.109-0.651,0.109h-1.237V48.779
			z M75.854,49.438v2.574h0.494c0.212,0,0.365-0.019,0.46-0.058s0.173-0.098,0.233-0.177s0.111-0.203,0.15-0.372
			c0.04-0.17,0.06-0.394,0.06-0.671c0-0.288-0.02-0.516-0.061-0.682s-0.104-0.297-0.189-0.393c-0.087-0.095-0.19-0.158-0.314-0.188
			c-0.092-0.022-0.271-0.034-0.534-0.034H75.854z"/>
		<rect x="78.487" y="51.925" fill="#4B5A61" width="0.625" height="0.745"/>
		<path fill="#4B5A61" d="M80.86,51.401l0.644-0.074c0.072,0.497,0.31,0.746,0.711,0.746c0.199,0,0.356-0.051,0.47-0.152
			c0.114-0.103,0.171-0.229,0.171-0.379c0-0.088-0.02-0.163-0.06-0.225c-0.04-0.063-0.101-0.113-0.182-0.153
			c-0.082-0.04-0.279-0.105-0.592-0.199c-0.28-0.083-0.486-0.174-0.616-0.271c-0.131-0.098-0.234-0.226-0.311-0.384
			c-0.077-0.158-0.116-0.328-0.116-0.51c0-0.212,0.05-0.403,0.148-0.573s0.234-0.298,0.408-0.384
			c0.174-0.087,0.389-0.131,0.644-0.131c0.384,0,0.684,0.103,0.898,0.306c0.216,0.203,0.33,0.494,0.342,0.873l-0.659,0.034
			c-0.029-0.208-0.092-0.354-0.188-0.438s-0.232-0.125-0.41-0.125c-0.177,0-0.313,0.036-0.409,0.108
			c-0.097,0.072-0.145,0.163-0.145,0.271c0,0.105,0.044,0.194,0.131,0.267s0.287,0.152,0.6,0.239
			c0.332,0.093,0.571,0.192,0.719,0.295c0.147,0.104,0.26,0.237,0.338,0.401c0.077,0.163,0.116,0.362,0.116,0.596
			c0,0.338-0.106,0.621-0.319,0.852c-0.212,0.229-0.545,0.345-0.997,0.345C81.396,52.736,80.951,52.291,80.86,51.401 M81.536,53.742
			v-0.313c0.152,0.02,0.292,0.029,0.421,0.029c0.123,0,0.215-0.023,0.277-0.069c0.062-0.048,0.092-0.107,0.092-0.18
			c0-0.065-0.024-0.119-0.074-0.161c-0.05-0.041-0.12-0.062-0.211-0.062c-0.094,0-0.19,0.018-0.29,0.053l0.057-0.266
			c0.116-0.048,0.243-0.071,0.38-0.071c0.171,0,0.307,0.047,0.409,0.14s0.153,0.214,0.153,0.363c0,0.17-0.068,0.309-0.204,0.418
			c-0.136,0.107-0.327,0.162-0.575,0.162C81.779,53.785,81.634,53.771,81.536,53.742"/>
		<polygon fill="#4B5A61" points="84.802,52.67 84.802,49.438 83.833,49.438 83.833,48.779 86.426,48.779 86.426,49.438 
			85.459,49.438 85.459,52.67 		"/>
		<path fill="#4B5A61" d="M86.833,48.779h0.657v3.891h-0.657V48.779z M86.854,47.729h0.616v0.706h-0.616V47.729z"/>
		<rect x="88.117" y="51.925" fill="#4B5A61" width="0.624" height="0.745"/>
	</g>
	<g>
		<defs>
			<path id="SVGID_1_" d="M30.063,55.161c3.555,14.602,10.864,16.561,10.864,16.561s-0.168,3.827-0.105,5.591S42.087,79,42.087,79
				s5.604-0.277,7.489-0.633c1.886-0.355,2.005-2.109,2.005-2.109l1.793-5.274c3.187-1.003,4.325-2.109,4.325-2.109
				c-2.703,0.796-5.063,0.633-5.063,0.633c-14.478,0-16.455-14.346-16.455-14.346H30.063z M7.911,55.056
				c3.682,0.635,17.088,2.637,17.088,2.637l-3.691,4.22c-1.181,1.319-0.316,3.059-0.316,3.059s4.265,5.627,5.168,6.856
				c0.904,1.229,2.532,0.422,2.532,0.422l5.484-3.797c-4.816-6.184-4.957-13.396-4.957-13.396H7.911z M54.007,1.819l-1.898,5.169
				c6.8,1.362,9.704,4.43,9.704,4.43C53.787,5.936,44.83,8.359,44.83,8.359l-3.692-4.536c-0.905-1.175-2.426-0.21-2.426-0.21
				L31.328,8.57c-1.184,1.104-0.316,3.27-0.316,3.27l1.898,5.063c-2.611,3.07-5.063,7.911-5.063,7.911l-6.962,0.211
				c-1.229,0.62-2.005,3.797-2.005,3.797L1.055,31.144L0,31.354l37.341,0.422c2.712-9.516,9.541-14.326,11.181-15.19
				c8.887-4.682,15.611-0.844,15.611-0.844c-2.918-0.982-6.329-0.844-6.329-0.844c-9.775,0.813-13.29,7.7-13.29,7.7
				c6.08-6.108,12.692-5.996,13.29-6.013c11.388-0.321,15.718,11.181,15.718,11.181s-0.073-0.463-0.212-1.372
				c-0.138-0.908,0-1.266,0-1.266l2.532-3.375c0.486-0.74-0.105-2.32-0.105-2.32s-2.32-5.084-2.849-6.118
				c-0.527-1.034-2.004-0.211-2.004-0.211l-2.848,1.793c-2.705-3.408-4.853-4.431-4.853-4.431l0.211-5.59
				c0.016-0.43-0.55-1.144-1.477-1.582c-0.927-0.439-4.514-1.829-6.118-2.215C55.564,1.024,55.36,1,55.182,1
				C54.145,1,54.007,1.819,54.007,1.819"/>
		</defs>
		<clipPath id="SVGID_2_">
			<use xlink:href="#SVGID_1_"  overflow="visible"/>
		</clipPath>
		
			<linearGradient id="SVGID_3_" gradientUnits="userSpaceOnUse" x1="-346.5254" y1="337.5" x2="-346.3546" y2="337.5" gradientTransform="matrix(445.3961 0 0 -445.3961 154340.7969 150361.1719)">
			<stop  offset="0" style="stop-color:#063772"/>
			<stop  offset="0.241" style="stop-color:#06366F"/>
			<stop  offset="0.3921" style="stop-color:#053167"/>
			<stop  offset="0.5184" style="stop-color:#042A58"/>
			<stop  offset="0.6305" style="stop-color:#022044"/>
			<stop  offset="0.7332" style="stop-color:#001329"/>
			<stop  offset="0.7374" style="stop-color:#001228"/>
			<stop  offset="1" style="stop-color:#001228"/>
		</linearGradient>
		<rect y="1" clip-path="url(#SVGID_2_)" fill="url(#SVGID_3_)" width="76.328" height="78.076"/>
	</g>
	<g>
		<defs>
			<path id="SVGID_4_" d="M64.089,54.92c-3.355,7.006-10.759,9.389-10.759,9.389c-9.007,2.426-13.396-3.271-13.396-3.271
				s4.664,7.671,12.869,7.384C63.99,68.029,69.68,57.03,69.68,57.03l14.556-2.11H64.089z M58.182,17.717
				c-7.286,0.07-11.919,4.219-11.919,4.219s3.168-2.032,9.282-1.688c7.87,0.442,11.181,11.392,11.181,11.392h26.16l-20.464-1.688
				c-1.448-5.852-7.406-12.237-14.138-12.236C58.25,17.717,58.216,17.717,58.182,17.717"/>
		</defs>
		<clipPath id="SVGID_5_">
			<use xlink:href="#SVGID_4_"  overflow="visible"/>
		</clipPath>
		
			<linearGradient id="SVGID_6_" gradientUnits="userSpaceOnUse" x1="-346.9429" y1="337.5488" x2="-346.772" y2="337.5488" gradientTransform="matrix(310.1881 0 0 -310.1881 107657.5234 104746.5156)">
			<stop  offset="0" style="stop-color:#8C8C8C"/>
			<stop  offset="0.1807" style="stop-color:#9C9C9C"/>
			<stop  offset="0.5361" style="stop-color:#C7C7C7"/>
			<stop  offset="0.9385" style="stop-color:#FFFFFF"/>
			<stop  offset="1" style="stop-color:#FFFFFF"/>
		</linearGradient>
		<rect x="39.934" y="17.716" clip-path="url(#SVGID_5_)" fill="url(#SVGID_6_)" width="52.952" height="50.993"/>
	</g>
	<g>
		<polygon fill="#053A7E" points="11.865,38.32 16.75,34.425 20.606,34.425 17.327,46.894 13.471,46.894 15.521,39.097 
			10.636,42.999 7.808,39.097 5.759,46.894 1.902,46.894 5.182,34.425 9.038,34.425 		"/>
		<polygon fill="#053A7E" points="29.047,34.424 32.895,34.424 35.404,46.894 31.548,46.894 29.741,39.097 23.844,46.894 
			19.979,46.894 		"/>
		<polygon fill="#053A7E" points="45.509,38.225 49.582,34.418 54.292,34.418 46.806,40.707 45.149,46.988 41.26,46.988 
			42.916,40.707 38.733,34.424 43.459,34.424 		"/>
		<path fill="#053A7E" d="M52.661,46.894l2.049-7.796h15.434l-0.82,3.125H57.747l-0.41,1.555h11.577l-0.828,3.117H52.661z
			 M55.12,37.542l0.819-3.117h15.434l-0.819,3.117H55.12z"/>
		<path fill="#053A7E" d="M85.51,34.424c0.73,0,1.359,0.145,1.887,0.434c0.526,0.288,0.906,0.677,1.138,1.166
			c0.23,0.489,0.269,1.031,0.112,1.626l-0.351,1.346c-0.156,0.595-0.479,1.136-0.967,1.624c-0.488,0.486-1.072,0.875-1.752,1.166
			c-0.681,0.291-1.386,0.437-2.117,0.437h-1.798l4.551,4.672h-5.78l-4.542-4.672l-1.23,4.672h-3.873l2.059-7.81h3.864v0.014h6.868
			c0.229,0,0.441-0.065,0.64-0.196c0.197-0.131,0.321-0.288,0.372-0.474l0.05-0.216c0.051-0.185,0.012-0.343-0.117-0.474
			c-0.128-0.131-0.307-0.196-0.535-0.196h-10.74l0.819-3.117h4.091h0.009H85.51z"/>
	</g>
</g>
</svg>
