<?xml version="1.0" encoding="utf-8"?>
<!-- Generator: Adobe Illustrator 16.0.0, SVG Export Plug-In . SVG Version: 6.00 Build 0)  -->
<!DOCTYPE svg PUBLIC "-//W3C//DTD SVG 1.1//EN" "http://www.w3.org/Graphics/SVG/1.1/DTD/svg11.dtd">
<svg version="1.1" id="Layer_1" xmlns="http://www.w3.org/2000/svg" xmlns:xlink="http://www.w3.org/1999/xlink" x="0px" y="0px"
	 width="400px" height="200px" viewBox="0 -60 400 200" enable-background="new 0 -60 400 200" xml:space="preserve">
<g opacity="0.8">
	<g>
		<g>
			<defs>
				<path id="SVGID_1_" d="M214.658,55.991l-5.17,14.083c18.526,3.712,26.438,12.07,26.438,12.07
					c-21.866-14.936-46.27-8.334-46.27-8.334l-10.058-12.359c-2.47-3.201-6.612-0.572-6.612-0.572l-20.117,13.506
					c-3.226,3.008-0.862,8.909-0.862,8.909l5.173,13.793c-7.115,8.366-13.793,21.557-13.793,21.557l-18.972,0.575
					c-3.347,1.687-5.462,10.345-5.462,10.345l-48.564,6.327l-2.875,0.57l101.737,1.148c7.389-25.925,25.995-39.029,30.462-41.384
					c24.215-12.757,42.535-2.3,42.535-2.3c-7.951-2.677-17.242-2.298-17.242-2.298c-26.634,2.214-36.212,20.977-36.212,20.977
					c16.565-16.64,34.581-16.337,36.212-16.382c31.023-0.876,42.821,30.462,42.821,30.462s-0.196-1.261-0.575-3.735
					c-0.377-2.475,0-3.451,0-3.451l6.897-9.195c1.325-2.014-0.288-6.319-0.288-6.319s-6.318-13.851-7.758-16.671
					c-1.438-2.817-5.463-0.574-5.463-0.574l-7.759,4.884c-7.37-9.284-13.221-12.071-13.221-12.071l0.575-15.23
					c0.042-1.171-1.502-3.116-4.026-4.31c-2.525-1.196-12.3-4.984-16.669-6.035c-0.639-0.15-1.197-0.215-1.682-0.215
					C215.033,53.761,214.658,55.991,214.658,55.991"/>
			</defs>
			<clipPath id="SVGID_2_">
				<use xlink:href="#SVGID_1_"  overflow="visible"/>
			</clipPath>
			
				<linearGradient id="SVGID_3_" gradientUnits="userSpaceOnUse" x1="-695.043" y1="-266.1523" x2="-694.5773" y2="-266.1523" gradientTransform="matrix(445.3961 0 0 445.3961 309636.1875 118703.5781)">
				<stop  offset="0" style="stop-color:#063772"/>
				<stop  offset="0.241" style="stop-color:#06366F"/>
				<stop  offset="0.3921" style="stop-color:#053167"/>
				<stop  offset="0.5184" style="stop-color:#042A58"/>
				<stop  offset="0.6305" style="stop-color:#022044"/>
				<stop  offset="0.7332" style="stop-color:#001329"/>
				<stop  offset="0.7374" style="stop-color:#001228"/>
				<stop  offset="1" style="stop-color:#001228"/>
			</linearGradient>
			<rect x="67.514" y="53.761" clip-path="url(#SVGID_2_)" fill="url(#SVGID_3_)" width="207.961" height="212.723"/>
		</g>
	</g>
	<g>
		<g>
			<defs>
				<path id="SVGID_4_" d="M226.033,99.306c-19.85,0.192-32.471,11.495-32.471,11.495s8.631-5.534,25.286-4.598
					c21.442,1.202,30.465,31.04,30.465,31.04h71.275l-55.758-4.601c-3.942-15.946-20.179-33.342-38.519-33.339
					C226.219,99.306,226.126,99.306,226.033,99.306"/>
			</defs>
			<clipPath id="SVGID_5_">
				<use xlink:href="#SVGID_4_"  overflow="visible"/>
			</clipPath>
			
				<linearGradient id="SVGID_6_" gradientUnits="userSpaceOnUse" x1="-694.8091" y1="-265.8145" x2="-694.3429" y2="-265.8145" gradientTransform="matrix(310.1881 0 0 310.1881 215697.75 82621.2344)">
				<stop  offset="0" style="stop-color:#8C8C8C"/>
				<stop  offset="0.1807" style="stop-color:#9C9C9C"/>
				<stop  offset="0.5361" style="stop-color:#C7C7C7"/>
				<stop  offset="0.9385" style="stop-color:#FFFFFF"/>
				<stop  offset="1" style="stop-color:#FFFFFF"/>
			</linearGradient>
			<rect x="176.315" y="99.304" clip-path="url(#SVGID_5_)" fill="url(#SVGID_6_)" width="144.273" height="138.935"/>
		</g>
	</g>
</g>
</svg>
